<?xml version="1.0" encoding="UTF-8"?>
<svg id="Ebene_1" xmlns="http://www.w3.org/2000/svg" version="1.1" viewBox="0 0 40 40">
  <!-- Generator: Adobe Illustrator 29.7.1, SVG Export Plug-In . SVG Version: 2.1.1 Build 8)  -->
  <defs>
    <style>
      .st0 {
        fill: #fff;
        fill-rule: evenodd;
      }
    </style>
  </defs>
  <path class="st0" d="M29,19c0-3.9-4-7-9-7s-9,3.2-9,7,3.2,6.4,7.5,6.9c.3,0,.7.2.8.4v.8s-.1.6-.1.7c0,.2-.2.9.8.5s5.2-2.9,7.1-5c1.3-1.4,1.9-2.8,1.9-4.3ZM14.4,21.1c-.2,0-.4-.2-.4-.4v-3.3c0-.2.2-.4.5-.4s.4.2.4.4v2.8h1.1c.2,0,.4.2.4.4s-.2.4-.4.4h-1.6ZM18.2,20.7c0,.2-.2.4-.4.4s-.5-.2-.5-.4v-3.3c0-.2.2-.4.5-.4s.4.2.4.4v3.3ZM22.7,20.7c0,.2-.1.4-.3.4h-.1c-.1,0-.3,0-.4-.2l-1.8-2.3v2c0,.2-.2.4-.5.4s-.5-.2-.5-.4v-3.3c0-.2.1-.3.3-.4h.1c.1,0,.3,0,.4.2l1.8,2.3v-2c0-.2.2-.4.5-.4s.5.2.5.4v3.3ZM25.6,18.6c.2,0,.4.2.4.4s-.2.4-.4.4h-1.2v.8h1.2c.2,0,.4.2.4.4s-.2.4-.4.4h-1.6c-.2,0-.4-.2-.4-.4v-1.6h0v-1.6c0-.2.2-.4.4-.4h1.6c.2,0,.4.2.4.4s-.2.4-.4.4h-1.2v.8s1.2,0,1.2,0Z"/>
</svg>