<svg width="270" height="46" viewBox="0 0 270 46" fill="none" xmlns="http://www.w3.org/2000/svg">
<path d="M37.3792 19.6225L35.6926 27.4931H42.1834V33.8817H34.3127L32.4728 42.5701H25.6754L27.5153 33.8817H18.2136L16.3737 42.5701H9.62744L11.4673 33.8817H3.75V27.4931H12.8473L14.5338 19.6225H6.8676V13.234H15.9138L17.7025 4.75H24.4488L22.66 13.234H31.9617L33.7505 4.75H40.5479L38.7591 13.234H45.301V19.6225H37.3792ZM30.5818 19.6225H21.2801L19.5935 27.4931H28.8952L30.5818 19.6225Z" fill="white"/>
<path d="M72.7972 36.5393H88.8452V42.5701H64.5177V37.0504L80.4634 12.9273H64.5177V6.89654H88.8452V12.4162L72.7972 36.5393Z" fill="white"/>
<path d="M112.517 42.9278C109.178 42.9278 106.111 42.1442 103.318 40.5768C100.524 39.0095 98.309 36.846 96.6735 34.0861C95.038 31.2922 94.2203 28.1405 94.2203 24.6311C94.2203 21.1557 95.038 18.0381 96.6735 15.2783C98.309 12.4844 100.524 10.3038 103.318 8.73644C106.111 7.16912 109.178 6.38546 112.517 6.38546C115.89 6.38546 118.957 7.16912 121.717 8.73644C124.51 10.3038 126.708 12.4844 128.309 15.2783C129.945 18.0381 130.763 21.1557 130.763 24.6311C130.763 28.1405 129.945 31.2922 128.309 34.0861C126.708 36.846 124.51 39.0095 121.717 40.5768C118.923 42.1442 115.856 42.9278 112.517 42.9278ZM112.517 36.5393C114.664 36.5393 116.555 36.0623 118.19 35.1083C119.826 34.1202 121.103 32.7232 122.023 30.9174C122.943 29.1116 123.403 27.0161 123.403 24.6311C123.403 22.246 122.943 20.1676 122.023 18.3959C121.103 16.5901 119.826 15.2101 118.19 14.2561C116.555 13.3021 114.664 12.8251 112.517 12.8251C110.371 12.8251 108.462 13.3021 106.793 14.2561C105.157 15.2101 103.88 16.5901 102.96 18.3959C102.04 20.1676 101.58 22.246 101.58 24.6311C101.58 27.0161 102.04 29.1116 102.96 30.9174C103.88 32.7232 105.157 34.1202 106.793 35.1083C108.462 36.0623 110.371 36.5393 112.517 36.5393Z" fill="white"/>
<path d="M157.347 24.2733C159.357 24.6481 161.01 25.6533 162.304 27.2887C163.599 28.9242 164.247 30.7981 164.247 32.9106C164.247 34.8187 163.77 36.5052 162.816 37.9703C161.896 39.4014 160.55 40.5257 158.778 41.3435C157.006 42.1612 154.911 42.5701 152.492 42.5701H137.108V6.89654H151.827C154.246 6.89654 156.325 7.28837 158.062 8.07203C159.834 8.85569 161.163 9.946 162.049 11.343C162.969 12.7399 163.429 14.3243 163.429 16.096C163.429 18.1744 162.867 19.9121 161.742 21.3091C160.652 22.706 159.187 23.6941 157.347 24.2733ZM144.263 21.6157H150.805C152.509 21.6157 153.82 21.2409 154.74 20.4913C155.66 19.7077 156.12 18.6003 156.12 17.1693C156.12 15.7383 155.66 14.6309 154.74 13.8473C153.82 13.0636 152.509 12.6718 150.805 12.6718H144.263V21.6157ZM151.469 36.7437C153.207 36.7437 154.553 36.3349 155.507 35.5171C156.495 34.6994 156.989 33.541 156.989 32.0418C156.989 30.5085 156.478 29.316 155.456 28.4642C154.434 27.5783 153.054 27.1354 151.316 27.1354H144.263V36.7437H151.469Z" fill="white"/>
<path d="M192.846 35.7727H178.637L176.287 42.5701H168.774L181.602 6.84543H189.932L202.761 42.5701H195.197L192.846 35.7727ZM190.903 30.0486L185.742 15.125L180.58 30.0486H190.903Z" fill="white"/>
<path d="M230.452 35.7727H216.244L213.893 42.5701H206.38L219.208 6.84543H227.539L240.367 42.5701H232.803L230.452 35.7727ZM228.51 30.0486L223.348 15.125L218.186 30.0486H228.51Z" fill="white"/>
<path d="M267.998 8.16596L260.819 31.7984L254.994 30.2376L260.543 6.16857L267.998 8.16596ZM254.959 42.6095C253.708 42.2744 252.773 41.6181 252.153 40.6407C251.575 39.6392 251.44 38.5625 251.749 37.4106C252.057 36.2587 252.708 35.4101 253.701 34.8648C254.735 34.2954 255.878 34.1783 257.128 34.5134C258.346 34.8397 259.244 35.5035 259.822 36.5051C260.409 37.4737 260.549 38.5339 260.24 39.6858C259.931 40.8377 259.276 41.7027 258.275 42.281C257.282 42.8263 256.177 42.9358 254.959 42.6095Z" fill="white"/>
</svg>
