<svg width="180" height="30" viewBox="0 0 180 30" fill="none" xmlns="http://www.w3.org/2000/svg">
<path d="M24.9195 12.4149L23.7951 17.662H28.1222V21.9211H22.8751L21.6485 27.7133H17.1169L18.3435 21.9211H12.1424L10.9158 27.7133H6.4183L7.64489 21.9211H2.5V17.662H8.56484L9.68922 12.4149H4.5784V8.15591H10.6092L11.8017 2.49994H16.2992L15.1067 8.15591H21.3078L22.5003 2.49994H27.0319L25.8394 8.15591H30.2006V12.4149H24.9195ZM20.3879 12.4149H14.1867L13.0624 17.662H19.2635L20.3879 12.4149Z" fill="#4A3830"/>
<path d="M48.5315 23.6928H59.2301V27.7133H43.0118V24.0335L53.6423 7.95148H43.0118V3.93097H59.2301V7.61076L48.5315 23.6928Z" fill="#4A3830"/>
<path d="M75.0114 27.9518C72.7853 27.9518 70.741 27.4294 68.8784 26.3845C67.0158 25.3396 65.5393 23.8972 64.449 22.0573C63.3587 20.1947 62.8135 18.0936 62.8135 15.754C62.8135 13.4371 63.3587 11.3587 64.449 9.5188C65.5393 7.65619 67.0158 6.20244 68.8784 5.15756C70.741 4.11269 72.7853 3.59025 75.0114 3.59025C77.2601 3.59025 79.3045 4.11269 81.1443 5.15756C83.007 6.20244 84.4721 7.65619 85.5397 9.5188C86.63 11.3587 87.1751 13.4371 87.1751 15.754C87.1751 18.0936 86.63 20.1947 85.5397 22.0573C84.4721 23.8972 83.007 25.3396 81.1443 26.3845C79.2817 27.4294 77.2374 27.9518 75.0114 27.9518ZM75.0114 23.6928C76.4424 23.6928 77.7031 23.3748 78.7934 22.7388C79.8837 22.0801 80.7355 21.1488 81.3488 19.9449C81.9621 18.741 82.2687 17.344 82.2687 15.754C82.2687 14.164 81.9621 12.7784 81.3488 11.5972C80.7355 10.3933 79.8837 9.47337 78.7934 8.83736C77.7031 8.20134 76.4424 7.88334 75.0114 7.88334C73.5803 7.88334 72.3083 8.20134 71.1953 8.83736C70.105 9.47337 69.2532 10.3933 68.6399 11.5972C68.0266 12.7784 67.7199 14.164 67.7199 15.754C67.7199 17.344 68.0266 18.741 68.6399 19.9449C69.2532 21.1488 70.105 22.0801 71.1953 22.7388C72.3083 23.3748 73.5803 23.6928 75.0114 23.6928Z" fill="#4A3830"/>
<path d="M104.898 15.5155C106.238 15.7654 107.34 16.4354 108.203 17.5257C109.066 18.6161 109.498 19.8654 109.498 21.2737C109.498 22.5457 109.18 23.6701 108.544 24.6468C107.93 25.6008 107.033 26.3504 105.852 26.8956C104.671 27.4407 103.274 27.7133 101.661 27.7133H91.4054V3.93097H101.218C102.831 3.93097 104.216 4.19219 105.375 4.71463C106.556 5.23707 107.442 5.96394 108.033 6.89524C108.646 7.82655 108.953 8.88278 108.953 10.064C108.953 11.4496 108.578 12.608 107.828 13.5393C107.101 14.4706 106.125 15.1293 104.898 15.5155ZM96.1755 13.7437H100.537C101.672 13.7437 102.547 13.4939 103.16 12.9942C103.774 12.4717 104.08 11.7335 104.08 10.7795C104.08 9.82545 103.774 9.08722 103.16 8.56478C102.547 8.04234 101.672 7.78112 100.537 7.78112H96.1755V13.7437ZM100.98 23.8291C102.138 23.8291 103.035 23.5565 103.671 23.0114C104.33 22.4662 104.659 21.6939 104.659 20.6945C104.659 19.6723 104.319 18.8773 103.637 18.3094C102.956 17.7188 102.036 17.4235 100.877 17.4235H96.1755V23.8291H100.98Z" fill="#4A3830"/>
<path d="M128.564 23.1817H119.092L117.524 27.7133H112.516L121.068 3.89689H126.622L135.174 27.7133H130.131L128.564 23.1817ZM127.269 19.3656L123.828 9.41658L120.386 19.3656H127.269Z" fill="#4A3830"/>
<path d="M153.635 23.1817H144.163L142.595 27.7133H137.587L146.139 3.89689H151.693L160.245 27.7133H155.202L153.635 23.1817ZM152.34 19.3656L148.899 9.41658L145.457 19.3656H152.34Z" fill="#4A3830"/>
<path d="M178.666 4.77727L173.881 20.5323L169.997 19.4917L173.697 3.44567L178.666 4.77727ZM169.974 27.7396C169.14 27.5162 168.517 27.0787 168.103 26.4271C167.718 25.7594 167.628 25.0416 167.834 24.2737C168.04 23.5058 168.473 22.94 169.135 22.5765C169.825 22.1969 170.586 22.1188 171.42 22.3422C172.232 22.5597 172.831 23.0023 173.216 23.67C173.608 24.3157 173.7 25.0226 173.495 25.7905C173.289 26.5584 172.852 27.1351 172.184 27.5206C171.523 27.8841 170.786 27.9572 169.974 27.7396Z" fill="#4A3830"/>
</svg>
