<?xml version="1.0" encoding="UTF-8"?>
<svg id="Ebene_1" xmlns="http://www.w3.org/2000/svg" version="1.1" viewBox="0 0 40 40">
  <!-- Generator: Adobe Illustrator 29.7.1, SVG Export Plug-In . SVG Version: 2.1.1 Build 8)  -->
  <defs>
    <style>
      .st0 {
        fill: #fff;
        fill-rule: evenodd;
      }
    </style>
  </defs>
  <path class="st0" d="M20,12h4.6c0,0,.9,0,.9,0h.8c.9,0,1.7.5,2.4,1.2.6.6,1,1.5,1.1,2.3v1.3c.1.9.2,2,.2,3s0,2-.1,3v.9c0,.1-.1.3-.1.4,0,.9-.5,1.7-1.1,2.3-.6.6-1.5,1-2.4,1.1h-1.7c0,.1-1,.1-1,.1h-1c-.8.1-1.7.1-2.6.1h-4.6c0-.1-.9-.1-.9-.1h-.8c-.9-.1-1.7-.5-2.4-1.2-.6-.6-1-1.5-1.1-2.3v-1.3c-.1-1-.2-2-.2-3s0-2,.1-3v-.9c0,0,.1-.3.1-.4,0-.9.5-1.7,1.1-2.3.6-.6,1.5-1,2.4-1.1h1.7c0,0,1,0,1,0h1c.9-.1,1.7-.1,2.6,0ZM18,17.6v4.8c0,.5.5.8.9.5l4.2-2.4s.2-.1.2-.2v-.6s-.1-.2-.2-.2l-4.2-2.4h-.6s-.2,0-.2.2v.3h0Z"/>
</svg>